<?xml version="1.0" encoding="utf-8"?>
<!-- Generator: Adobe Illustrator 19.1.0, SVG Export Plug-In . SVG Version: 6.00 Build 0)  -->
<svg version="1.1" id="图层_1" xmlns="http://www.w3.org/2000/svg" xmlns:xlink="http://www.w3.org/1999/xlink" x="0px" y="0px"
	 viewBox="0 0 54 54" style="enable-background:new 0 0 54 54;" xml:space="preserve">
<style type="text/css">
	.st0{fill-rule:evenodd;clip-rule:evenodd;fill:none;stroke:#A6B7BB;stroke-width:2;stroke-miterlimit:10;}
	.st1{fill:#A6B7BB;}
	.st2{fill-rule:evenodd;clip-rule:evenodd;fill:none;stroke:#A6B7BB;stroke-width:3;stroke-miterlimit:10;}
	.st3{fill:#40BCCF;}
	.st4{fill-rule:evenodd;clip-rule:evenodd;fill:#40BCCF;}
</style>
<g>
	<path class="st0" d="M-653.3-68c0,8.8-15,8.8-15,0"/>
	<g>
		<path class="st1" d="M-639.8-80.7v13.5c0,7.7-6.3,14-14,14h-27.7v-13.5c0-7.7,6.3-14,14-14H-639.8 M-638.5-82.7h-29.1
			c-8.8,0-16,7.2-16,16v14.8c0,0.4,0.3,0.7,0.7,0.7h29.1c8.8,0,16-7.2,16-16v-14.8C-637.8-82.5-638.1-82.7-638.5-82.7L-638.5-82.7z"
			/>
	</g>
</g>
<g>
	<path class="st2" d="M-649.6,151.2c0,13.2-22.5,13.2-22.5,0"/>
	<g>
		<path class="st1" d="M-629.4,132v20.3c0,11.6-9.4,21-21,21H-692V153c0-11.6,9.4-21,21-21H-629.4 M-627.4,129H-671
			c-13.3,0-24,10.7-24,24v22.2c0,0.6,0.4,1,1,1h43.6c13.3,0,24-10.7,24-24V130C-626.4,129.5-626.8,129-627.4,129L-627.4,129z"/>
	</g>
</g>
<g>
	<g>
		<path class="st1" d="M-559.7-84c3,0,6.5,0.9,6.5,8.1c0,4.5-2.9,8.1-6.5,8.1c-3.6,0-6.5-3.6-6.5-8.1C-566.2-83.1-562.7-84-559.7-84
			 M-559.7-86c-4.7,0-8.5,2.4-8.5,10.1c0,5.6,3.8,10.1,8.5,10.1c4.7,0,8.5-4.5,8.5-10.1C-551.2-83.6-555-86-559.7-86L-559.7-86z"/>
	</g>
	<g>
		<path class="st1" d="M-566.5-63.2c2,1.3,4.4,2,6.8,2c2.4,0,4.7-0.7,6.8-2l5.8,3.1c0,0,0.1,0,0.1,0.1l4.3,9.8c0,0.1,0,0.1,0,0.2
			c0,0-0.1,0.1-0.1,0.1h-33.7c0,0-0.1,0-0.1-0.1c0-0.1,0-0.1,0-0.2l4.3-9.8c0,0,0-0.1,0.1-0.1L-566.5-63.2 M-553-65.4
			c-0.1,0-0.2,0-0.3,0.1c-1.9,1.4-4.1,2.2-6.4,2.2c-2.3,0-4.5-0.8-6.4-2.2c-0.1-0.1-0.2-0.1-0.3-0.1c-0.1,0-0.1,0-0.2,0l-6.7,3.5
			c-0.4,0.2-0.8,0.6-1,1l-4.3,9.8c-0.3,0.7-0.2,1.4,0.2,2.1c0.4,0.6,1.1,1,1.8,1h33.7c0.7,0,1.4-0.4,1.8-1c0.4-0.6,0.5-1.4,0.2-2.1
			l-4.3-9.8c-0.2-0.4-0.5-0.8-1-1l-6.7-3.5C-552.9-65.4-552.9-65.4-553-65.4L-553-65.4z"/>
	</g>
</g>
<g>
	<g>
		<path class="st1" d="M-559.7,127.2c4.5,0,9.8,1.4,9.8,12.1c0,6.7-4.4,12.1-9.8,12.1c-5.4,0-9.8-5.4-9.8-12.1
			C-569.4,128.5-564.2,127.2-559.7,127.2 M-559.7,124.2c-7.1,0-12.8,3.5-12.8,15.1c0,8.3,5.7,15.1,12.8,15.1
			c7.1,0,12.8-6.8,12.8-15.1C-546.9,127.7-552.6,124.2-559.7,124.2L-559.7,124.2z"/>
	</g>
	<g>
		<path class="st1" d="M-569.8,158.4c3.1,2,6.6,3,10.2,3c3.6,0,7.1-1,10.2-3l8.7,4.6c0,0,0.1,0.1,0.1,0.1l6.4,14.7
			c0,0.1,0,0.2,0,0.3c0,0.1-0.1,0.1-0.2,0.1h-50.5c-0.1,0-0.1,0-0.2-0.1c-0.1-0.1-0.1-0.2,0-0.3l6.4-14.7c0,0,0.1-0.1,0.1-0.1
			L-569.8,158.4 M-549.7,155c-0.1,0-0.3,0-0.4,0.1c-2.8,2.2-6.2,3.3-9.6,3.3c-3.5,0-6.8-1.1-9.6-3.3c-0.1-0.1-0.3-0.1-0.4-0.1
			c-0.1,0-0.2,0-0.3,0.1l-10,5.3c-0.6,0.3-1.2,0.9-1.5,1.6l-6.4,14.7c-0.4,1-0.4,2.2,0.2,3.1c0.6,0.9,1.6,1.5,2.7,1.5h50.5
			c1.1,0,2.1-0.6,2.7-1.5c0.6-0.9,0.7-2.1,0.2-3.1l-6.4-14.7c-0.3-0.7-0.8-1.2-1.5-1.6l-10-5.3C-549.5,155.1-549.6,155-549.7,155
			L-549.7,155z"/>
	</g>
</g>
<g>
	<g>
		<path class="st3" d="M-559.7,26.1c4.7,0,8.5-4.5,8.5-10.1c0-7.7-3.8-10.1-8.5-10.1c-4.7,0-8.5,2.4-8.5,10.1
			C-568.2,21.6-564.4,26.1-559.7,26.1z"/>
	</g>
	<g>
		<path class="st3" d="M-540.9,41l-4.3-9.8c-0.2-0.4-0.5-0.8-1-1l-6.7-3.5c-0.1-0.1-0.3-0.1-0.5,0c-1.9,1.4-4.1,2.2-6.4,2.2
			c-2.3,0-4.5-0.8-6.4-2.2c-0.1-0.1-0.3-0.1-0.5,0l-6.7,3.5c-0.4,0.2-0.8,0.6-1,1l-4.3,9.8c-0.3,0.7-0.2,1.4,0.2,2.1
			c0.4,0.6,1.1,1,1.8,1h33.7c0.7,0,1.4-0.4,1.8-1C-540.6,42.4-540.6,41.6-540.9,41z"/>
	</g>
</g>
<g>
	<g>
		<path class="st3" d="M-559.7,299.5c7.1,0,12.8-6.8,12.8-15.1c0-11.6-5.7-15.1-12.8-15.1s-12.8,3.5-12.8,15.1
			C-572.4,292.8-566.7,299.5-559.7,299.5z"/>
	</g>
	<g>
		<path class="st3" d="M-531.5,321.8l-6.4-14.7c-0.3-0.7-0.8-1.2-1.5-1.6l-10-5.3c-0.2-0.1-0.5-0.1-0.7,0.1
			c-2.8,2.2-6.2,3.3-9.6,3.3c-3.5,0-6.8-1.1-9.6-3.3c-0.2-0.2-0.5-0.2-0.7-0.1l-10,5.3c-0.6,0.3-1.2,0.9-1.5,1.6l-6.4,14.7
			c-0.4,1-0.4,2.2,0.2,3.1c0.6,0.9,1.6,1.5,2.7,1.5h50.5c1.1,0,2.1-0.6,2.7-1.5C-531.1,323.9-531,322.8-531.5,321.8z"/>
	</g>
</g>
<g>
	<g>
		<path class="st1" d="M-462.9-83.4c1.2,0,2.1,1,2.1,2.1c0,1.2-0.9,2.1-2.1,2.1s-2.1-1-2.1-2.1C-465-82.4-464.1-83.4-462.9-83.4
			 M-462.9-85.4c-2.3,0-4.1,1.8-4.1,4.1s1.8,4.1,4.1,4.1s4.1-1.8,4.1-4.1S-460.7-85.4-462.9-85.4L-462.9-85.4z"/>
	</g>
	<g>
		<path class="st1" d="M-448.7-83.4c1.2,0,2.1,1,2.1,2.1c0,1.2-0.9,2.1-2.1,2.1c-1.2,0-2.1-1-2.1-2.1
			C-450.8-82.4-449.8-83.4-448.7-83.4 M-448.7-85.4c-2.3,0-4.1,1.8-4.1,4.1s1.8,4.1,4.1,4.1c2.3,0,4.1-1.8,4.1-4.1
			S-446.4-85.4-448.7-85.4L-448.7-85.4z"/>
	</g>
	<g>
		<path class="st1" d="M-462.9-69.1c1.2,0,2.1,0.9,2.1,2.1c0,1.2-0.9,2.1-2.1,2.1s-2.1-0.9-2.1-2.1C-465-68.2-464.1-69.1-462.9-69.1
			 M-462.9-71.1c-2.3,0-4.1,1.8-4.1,4.1c0,2.3,1.8,4.1,4.1,4.1s4.1-1.8,4.1-4.1C-458.8-69.3-460.7-71.1-462.9-71.1L-462.9-71.1z"/>
	</g>
	<g>
		<path class="st1" d="M-448.7-69.1c1.2,0,2.1,0.9,2.1,2.1c0,1.2-0.9,2.1-2.1,2.1c-1.2,0-2.1-0.9-2.1-2.1
			C-450.8-68.2-449.8-69.1-448.7-69.1 M-448.7-71.1c-2.3,0-4.1,1.8-4.1,4.1c0,2.3,1.8,4.1,4.1,4.1c2.3,0,4.1-1.8,4.1-4.1
			C-444.6-69.3-446.4-71.1-448.7-71.1L-448.7-71.1z"/>
	</g>
	<g>
		<path class="st1" d="M-462.9-54.9c1.2,0,2.1,1,2.1,2.1c0,1.2-0.9,2.1-2.1,2.1s-2.1-1-2.1-2.1C-465-53.9-464.1-54.9-462.9-54.9
			 M-462.9-56.9c-2.3,0-4.1,1.8-4.1,4.1c0,2.3,1.8,4.1,4.1,4.1s4.1-1.8,4.1-4.1C-458.8-55-460.7-56.9-462.9-56.9L-462.9-56.9z"/>
	</g>
	<g>
		<path class="st1" d="M-448.7-54.9c1.2,0,2.1,1,2.1,2.1c0,1.2-0.9,2.1-2.1,2.1c-1.2,0-2.1-1-2.1-2.1
			C-450.8-53.9-449.8-54.9-448.7-54.9 M-448.7-56.9c-2.3,0-4.1,1.8-4.1,4.1c0,2.3,1.8,4.1,4.1,4.1c2.3,0,4.1-1.8,4.1-4.1
			C-444.6-55-446.4-56.9-448.7-56.9L-448.7-56.9z"/>
	</g>
	<g>
		<path class="st1" d="M-434.5-83.4c1.2,0,2.2,1,2.2,2.1c0,1.2-1,2.1-2.2,2.1s-2.2-1-2.2-2.1C-436.7-82.4-435.7-83.4-434.5-83.4
			 M-434.5-85.4c-2.3,0-4.2,1.8-4.2,4.1c0,2.3,1.9,4.1,4.2,4.1c2.3,0,4.2-1.8,4.2-4.1C-430.3-83.5-432.2-85.4-434.5-85.4
			L-434.5-85.4z"/>
	</g>
	<g>
		<path class="st1" d="M-434.5-69.1c1.2,0,2.2,0.9,2.2,2.1c0,1.2-1,2.1-2.2,2.1s-2.2-0.9-2.2-2.1C-436.7-68.2-435.7-69.1-434.5-69.1
			 M-434.5-71.1c-2.3,0-4.2,1.8-4.2,4.1c0,2.3,1.9,4.1,4.2,4.1s4.2-1.8,4.2-4.1C-430.3-69.3-432.2-71.1-434.5-71.1L-434.5-71.1z"/>
	</g>
	<g>
		<path class="st1" d="M-434.5-54.9c1.2,0,2.2,1,2.2,2.1c0,1.2-1,2.1-2.2,2.1s-2.2-1-2.2-2.1C-436.7-53.9-435.7-54.9-434.5-54.9
			 M-434.5-56.9c-2.3,0-4.2,1.8-4.2,4.1c0,2.3,1.9,4.1,4.2,4.1s4.2-1.8,4.2-4.1C-430.3-55-432.2-56.9-434.5-56.9L-434.5-56.9z"/>
	</g>
</g>
<g>
	<g>
		<path class="st1" d="M-470.1,128.1c1.7,0,3.2,1.4,3.2,3.2c0,1.8-1.4,3.2-3.2,3.2s-3.2-1.4-3.2-3.2
			C-473.2,129.5-471.8,128.1-470.1,128.1 M-470.1,125.1c-3.4,0-6.2,2.8-6.2,6.2c0,3.4,2.8,6.2,6.2,6.2c3.4,0,6.2-2.8,6.2-6.2
			C-463.9,127.9-466.6,125.1-470.1,125.1L-470.1,125.1z"/>
	</g>
	<g>
		<path class="st1" d="M-448.7,128.1c1.7,0,3.1,1.4,3.1,3.2c0,1.8-1.4,3.2-3.1,3.2c-1.7,0-3.1-1.4-3.1-3.2
			C-451.8,129.5-450.4,128.1-448.7,128.1 M-448.7,125.1c-3.4,0-6.1,2.8-6.1,6.2c0,3.4,2.8,6.2,6.1,6.2c3.4,0,6.1-2.8,6.1-6.2
			C-442.5,127.9-445.3,125.1-448.7,125.1L-448.7,125.1z"/>
	</g>
	<g>
		<path class="st1" d="M-470.1,149.5c1.7,0,3.2,1.4,3.2,3.2c0,1.7-1.4,3.2-3.2,3.2s-3.2-1.4-3.2-3.2
			C-473.2,150.9-471.8,149.5-470.1,149.5 M-470.1,146.5c-3.4,0-6.2,2.8-6.2,6.2c0,3.4,2.8,6.2,6.2,6.2c3.4,0,6.2-2.8,6.2-6.2
			C-463.9,149.3-466.6,146.5-470.1,146.5L-470.1,146.5z"/>
	</g>
	<g>
		<path class="st1" d="M-448.7,149.5c1.7,0,3.1,1.4,3.1,3.2c0,1.7-1.4,3.2-3.1,3.2c-1.7,0-3.1-1.4-3.1-3.2
			C-451.8,150.9-450.4,149.5-448.7,149.5 M-448.7,146.5c-3.4,0-6.1,2.8-6.1,6.2c0,3.4,2.8,6.2,6.1,6.2c3.4,0,6.1-2.8,6.1-6.2
			C-442.5,149.3-445.3,146.5-448.7,146.5L-448.7,146.5z"/>
	</g>
	<g>
		<path class="st1" d="M-470.1,170.9c1.7,0,3.2,1.4,3.2,3.2c0,1.8-1.4,3.2-3.2,3.2s-3.2-1.4-3.2-3.2
			C-473.2,172.3-471.8,170.9-470.1,170.9 M-470.1,167.9c-3.4,0-6.2,2.8-6.2,6.2c0,3.4,2.8,6.2,6.2,6.2c3.4,0,6.2-2.8,6.2-6.2
			C-463.9,170.6-466.6,167.9-470.1,167.9L-470.1,167.9z"/>
	</g>
	<g>
		<path class="st1" d="M-448.7,170.9c1.7,0,3.1,1.4,3.1,3.2c0,1.8-1.4,3.2-3.1,3.2c-1.7,0-3.1-1.4-3.1-3.2
			C-451.8,172.3-450.4,170.9-448.7,170.9 M-448.7,167.9c-3.4,0-6.1,2.8-6.1,6.2c0,3.4,2.8,6.2,6.1,6.2c3.4,0,6.1-2.8,6.1-6.2
			C-442.5,170.6-445.3,167.9-448.7,167.9L-448.7,167.9z"/>
	</g>
	<g>
		<path class="st1" d="M-427.4,128.1c1.8,0,3.3,1.4,3.3,3.2c0,1.8-1.5,3.2-3.3,3.2c-1.8,0-3.3-1.4-3.3-3.2
			C-430.7,129.5-429.3,128.1-427.4,128.1 M-427.4,125.1c-3.5,0-6.3,2.8-6.3,6.2c0,3.4,2.8,6.2,6.3,6.2c3.5,0,6.3-2.8,6.3-6.2
			C-421.1,127.9-423.9,125.1-427.4,125.1L-427.4,125.1z"/>
	</g>
	<g>
		<path class="st1" d="M-427.4,149.5c1.8,0,3.3,1.4,3.3,3.2c0,1.7-1.5,3.2-3.3,3.2s-3.3-1.4-3.3-3.2
			C-430.7,150.9-429.2,149.5-427.4,149.5 M-427.4,146.5c-3.5,0-6.3,2.8-6.3,6.2c0,3.4,2.8,6.2,6.3,6.2c3.5,0,6.3-2.8,6.3-6.2
			C-421.1,149.3-423.9,146.5-427.4,146.5L-427.4,146.5z"/>
	</g>
	<g>
		<path class="st1" d="M-427.4,170.9c1.8,0,3.3,1.4,3.3,3.2c0,1.8-1.5,3.2-3.3,3.2s-3.3-1.4-3.3-3.2
			C-430.7,172.3-429.2,170.9-427.4,170.9 M-427.4,167.9c-3.5,0-6.3,2.8-6.3,6.2c0,3.4,2.8,6.2,6.3,6.2c3.5,0,6.3-2.8,6.3-6.2
			C-421.1,170.6-423.9,167.9-427.4,167.9L-427.4,167.9z"/>
	</g>
</g>
<g>
	<g>
		<path class="st4" d="M-462.9,6.6c2.3,0,4.1,1.8,4.1,4.1s-1.8,4.1-4.1,4.1s-4.1-1.8-4.1-4.1S-465.2,6.6-462.9,6.6z"/>
	</g>
	<g>
		<path class="st4" d="M-448.7,6.6c2.3,0,4.1,1.8,4.1,4.1s-1.8,4.1-4.1,4.1c-2.3,0-4.1-1.8-4.1-4.1S-450.9,6.6-448.7,6.6z"/>
	</g>
	<g>
		<path class="st4" d="M-462.9,20.9c2.3,0,4.1,1.8,4.1,4.1c0,2.3-1.8,4.1-4.1,4.1s-4.1-1.8-4.1-4.1C-467,22.7-465.2,20.9-462.9,20.9
			z"/>
	</g>
	<g>
		<path class="st4" d="M-448.7,20.9c2.3,0,4.1,1.8,4.1,4.1c0,2.3-1.8,4.1-4.1,4.1c-2.3,0-4.1-1.8-4.1-4.1
			C-452.8,22.7-450.9,20.9-448.7,20.9z"/>
	</g>
	<g>
		<path class="st4" d="M-462.9,35.1c2.3,0,4.1,1.8,4.1,4.1c0,2.3-1.8,4.1-4.1,4.1s-4.1-1.8-4.1-4.1C-467,37-465.2,35.1-462.9,35.1z"
			/>
	</g>
	<g>
		<path class="st4" d="M-448.7,35.1c2.3,0,4.1,1.8,4.1,4.1c0,2.3-1.8,4.1-4.1,4.1c-2.3,0-4.1-1.8-4.1-4.1
			C-452.8,37-450.9,35.1-448.7,35.1z"/>
	</g>
	<g>
		<path class="st4" d="M-434.5,6.6c2.3,0,4.2,1.8,4.2,4.1c0,2.3-1.9,4.1-4.2,4.1c-2.3,0-4.2-1.8-4.2-4.1
			C-438.7,8.5-436.8,6.6-434.5,6.6z"/>
	</g>
	<g>
		<path class="st4" d="M-434.5,20.9c2.3,0,4.2,1.8,4.2,4.1c0,2.3-1.9,4.1-4.2,4.1s-4.2-1.8-4.2-4.1
			C-438.7,22.7-436.8,20.9-434.5,20.9z"/>
	</g>
	<g>
		<path class="st4" d="M-434.5,35.1c2.3,0,4.2,1.8,4.2,4.1c0,2.3-1.9,4.1-4.2,4.1s-4.2-1.8-4.2-4.1C-438.7,37-436.8,35.1-434.5,35.1
			z"/>
	</g>
</g>
<g>
	<g>
		<path class="st4" d="M-470.1,270.2c3.4,0,6.2,2.8,6.2,6.2s-2.8,6.2-6.2,6.2c-3.4,0-6.2-2.8-6.2-6.2S-473.5,270.2-470.1,270.2z"/>
	</g>
	<g>
		<path class="st4" d="M-448.7,270.2c3.4,0,6.1,2.8,6.1,6.2s-2.8,6.2-6.1,6.2c-3.4,0-6.1-2.8-6.1-6.2S-452.1,270.2-448.7,270.2z"/>
	</g>
	<g>
		<path class="st4" d="M-470.1,291.6c3.4,0,6.2,2.8,6.2,6.2c0,3.4-2.8,6.2-6.2,6.2c-3.4,0-6.2-2.8-6.2-6.2
			C-476.2,294.4-473.5,291.6-470.1,291.6z"/>
	</g>
	<g>
		<path class="st4" d="M-448.7,291.6c3.4,0,6.1,2.8,6.1,6.2c0,3.4-2.8,6.2-6.1,6.2c-3.4,0-6.1-2.8-6.1-6.2
			C-454.8,294.4-452.1,291.6-448.7,291.6z"/>
	</g>
	<g>
		<path class="st4" d="M-470.1,313c3.4,0,6.2,2.8,6.2,6.2c0,3.4-2.8,6.2-6.2,6.2c-3.4,0-6.2-2.8-6.2-6.2
			C-476.2,315.8-473.5,313-470.1,313z"/>
	</g>
	<g>
		<path class="st4" d="M-448.7,313c3.4,0,6.1,2.8,6.1,6.2c0,3.4-2.8,6.2-6.1,6.2c-3.4,0-6.1-2.8-6.1-6.2
			C-454.8,315.8-452.1,313-448.7,313z"/>
	</g>
	<g>
		<path class="st4" d="M-427.4,270.3c3.5,0,6.3,2.8,6.3,6.2c0,3.4-2.8,6.2-6.3,6.2c-3.5,0-6.3-2.8-6.3-6.2
			C-433.7,273-430.9,270.3-427.4,270.3z"/>
	</g>
	<g>
		<path class="st4" d="M-427.4,291.6c3.5,0,6.3,2.8,6.3,6.2c0,3.4-2.8,6.2-6.3,6.2c-3.5,0-6.3-2.8-6.3-6.2
			C-433.7,294.4-430.9,291.6-427.4,291.6z"/>
	</g>
	<g>
		<path class="st4" d="M-427.4,313c3.5,0,6.3,2.8,6.3,6.2c0,3.4-2.8,6.2-6.3,6.2c-3.5,0-6.3-2.8-6.3-6.2
			C-433.7,315.8-430.9,313-427.4,313z"/>
	</g>
</g>
<g>
	<g>
		<path class="st1" d="M-324.3-83.4c1.4,0,2.5,1,2.5,2.2c0,0.9-0.5,3.3-2.5,3.3c-2.4,0-2.5-3.2-2.5-3.3
			C-326.7-82.4-325.6-83.4-324.3-83.4 M-324.3-85.4c-2.5,0-4.5,1.9-4.5,4.2c0,2.3,1.3,5.3,4.5,5.3c3.1,0,4.5-3,4.5-5.3
			C-319.8-83.5-321.8-85.4-324.3-85.4L-324.3-85.4z"/>
	</g>
	<g>
		<path class="st1" d="M-340.6-79.1c1.4,0,2.5,1,2.5,2.2c0,0.1,0,3.4-2.1,3.5c-0.1,0-0.1,0-0.2,0c-2.6,0-2.7-3.1-2.7-3.5
			C-343.1-78.1-342-79.1-340.6-79.1 M-340.6-81.1c-2.5,0-4.5,1.9-4.5,4.2c0,2.3,1.2,5.5,4.7,5.5c0.1,0,0.2,0,0.3,0
			c2.9-0.1,4-3.1,4-5.5C-336.2-79.2-338.1-81.1-340.6-81.1L-340.6-81.1z"/>
	</g>
	<g>
		<path class="st1" d="M-308.2-79.3c1.4,0,2.5,1,2.5,2.2c0,0.3-0.1,3.1-2.5,3.1c-2.3,0-2.5-2.6-2.5-3.1
			C-310.6-78.3-309.5-79.3-308.2-79.3 M-308.2-81.3c-2.5,0-4.5,1.9-4.5,4.2c0,2.3,1.3,5.1,4.5,5.1c3.2,0,4.5-2.8,4.5-5.1
			C-303.7-79.4-305.7-81.3-308.2-81.3L-308.2-81.3z"/>
	</g>
	<g>
		<path class="st1" d="M-337.2-66.3c0.2,0.2,0.4,0.5,0.6,0.8c-4.7,1.7-7.8,4.6-8.7,7.9l-2.2,0l1.3-5.4c0.7-1,1.2-1.7,1.6-2.3
			c0.2-0.3,0.4-0.6,0.6-0.9c1.2,0.4,2.5,0.6,3.8,0.6C-339-65.6-338-65.9-337.2-66.3 M-337-68.9c-1,0.7-1.8,1.3-3.1,1.3
			c-1.8,0-3.4-0.4-4.5-1.1c-1.2,1.5-1.7,2.5-3.5,4.9l-2,8.3l6.5-0.1c0-3.5,3.4-7.1,10.1-8.8C-334.3-66.1-335.5-67.6-337-68.9
			L-337-68.9z"/>
	</g>
	<g>
		<path class="st1" d="M-327.2-71c0.9,0.4,1.9,0.6,2.9,0.6c0.9,0,1.9-0.2,2.8-0.6c1.7,1.5,2.1,2,2.3,2.3c0.1,0.2,0.2,0.7,0.4,1.4
			c-1.7-0.2-3.7-0.3-5.5-0.3c-2,0-3.9,0.1-5.6,0.2c0.1-0.4,0.2-0.8,0.3-1C-329-69.1-328.2-70.1-327.2-71 M-321.2-73.5
			c-0.9,0.6-2,1-3.1,1c-1.1,0-2.2-0.4-3.2-1c-1.9,1.3-3.1,3.1-3.9,4.1c-0.2,0.6-1.4,4.3-1.4,4.3c2.2-0.4,5.6-0.6,8.4-0.6
			c2.8,0,6.1,0.2,8.3,0.7c0,0-1.1-3.8-1.4-4.6C-317.7-70.4-319.5-72-321.2-73.5L-321.2-73.5z"/>
	</g>
	<g>
		<path class="st1" d="M-304.7-66.5c0.7,0.7,1.6,1.7,2.1,2.6c0.2,0.7,0.9,3.1,1.6,5.7h-1.9c-0.9-3-4.1-5.6-9-7.3
			c0.2-0.3,0.4-0.6,0.6-0.9c1,0.3,2,0.6,3.2,0.6C-306.9-65.8-305.6-66.2-304.7-66.5 M-304.2-68.9c0,0-2.3,1.1-3.7,1.1
			c-1.4,0-2.4-0.4-3.9-1c-1.2,1.4-2.2,2.9-3.3,4.3c6.7,1.7,10.6,4.7,10.6,8.2h6.2c0,0-2.2-7.9-2.5-8.6
			C-301.8-66.6-304.2-68.9-304.2-68.9L-304.2-68.9z"/>
	</g>
	<g>
		<path class="st1" d="M-324.3-83.4c1.4,0,2.5,1,2.5,2.2c0,0.9-0.5,3.3-2.5,3.3c-2.4,0-2.5-3.2-2.5-3.3
			C-326.7-82.4-325.6-83.4-324.3-83.4 M-324.3-85.4c-2.5,0-4.5,1.9-4.5,4.2c0,2.3,1.3,5.3,4.5,5.3c3.1,0,4.5-3,4.5-5.3
			C-319.8-83.5-321.8-85.4-324.3-85.4L-324.3-85.4z"/>
	</g>
	<g>
		<path class="st1" d="M-327.2-71c0.9,0.4,1.9,0.6,2.9,0.6c0.9,0,1.9-0.2,2.8-0.6c1.7,1.5,2.1,2,2.3,2.3c0.1,0.2,0.2,0.7,0.4,1.4
			c-1.7-0.2-3.7-0.3-5.5-0.3c-2,0-3.9,0.1-5.6,0.2c0.1-0.4,0.2-0.8,0.3-1C-329-69.1-328.2-70.1-327.2-71 M-321.2-73.5
			c-0.9,0.6-2,1-3.1,1c-1.1,0-2.2-0.4-3.2-1c-1.9,1.3-3.1,3.1-3.9,4.1c-0.2,0.6-1.4,4.3-1.4,4.3c2.2-0.4,5.6-0.6,8.4-0.6
			c2.8,0,6.1,0.2,8.3,0.7c0,0-1.1-3.8-1.4-4.6C-317.7-70.4-319.5-72-321.2-73.5L-321.2-73.5z"/>
	</g>
	<g>
		<path class="st1" d="M-324.2-61.6c9.5,0,15.6,3.3,15.6,5.5c0,2.2-6.1,5.5-15.6,5.5c-9.5,0-15.6-3.3-15.6-5.5
			C-339.8-58.4-333.7-61.6-324.2-61.6 M-324.2-63.6c-9.7,0-17.6,3.4-17.6,7.5c0,4.1,7.9,7.5,17.6,7.5c9.7,0,17.6-3.4,17.6-7.5
			C-306.5-60.3-314.4-63.6-324.2-63.6L-324.2-63.6z"/>
	</g>
</g>
<g>
	<g>
		<path class="st1" d="M-324.3,128.1c2,0,3.7,1.5,3.7,3.4c0,1.3-0.7,5-3.7,5c-3.6,0-3.7-4.8-3.7-5
			C-328,129.6-326.4,128.1-324.3,128.1 M-324.3,125.1c-3.7,0-6.7,2.8-6.7,6.4c0,3.5,1.9,8,6.7,8c4.6,0,6.7-4.5,6.7-8
			C-317.7,128-320.6,125.1-324.3,125.1L-324.3,125.1z"/>
	</g>
	<g>
		<path class="st1" d="M-348.8,134.5c2,0,3.7,1.5,3.7,3.4c0,0.2,0,5-3.1,5.2c-0.1,0-0.2,0-0.3,0c-3.9,0-4-4.7-4-5.2
			C-352.5,136-350.9,134.5-348.8,134.5 M-348.8,131.5c-3.7,0-6.7,2.8-6.7,6.4c0,3.4,1.8,8.2,7,8.2c0.1,0,0.3,0,0.4,0
			c4.3-0.2,5.9-4.7,5.9-8.2S-345.1,131.5-348.8,131.5L-348.8,131.5z"/>
	</g>
	<g>
		<path class="st1" d="M-300.2,134.2c2,0,3.7,1.5,3.7,3.4c0,0.5-0.1,4.7-3.7,4.7c-3.5,0-3.7-3.9-3.7-4.7
			C-303.8,135.7-302.2,134.2-300.2,134.2 M-300.2,131.2c-3.7,0-6.7,2.8-6.7,6.4c0,3.5,1.9,7.7,6.7,7.7c4.7,0,6.7-4.2,6.7-7.7
			C-293.5,134-296.5,131.2-300.2,131.2L-300.2,131.2z"/>
	</g>
	<g>
		<path class="st1" d="M-343.8,153.6c0.3,0.4,0.7,0.8,1,1.1c-7.1,2.6-11.8,6.9-13.1,11.9l-3.2,0.1l2-8c1-1.4,1.8-2.5,2.4-3.5
			c0.3-0.5,0.6-1,1-1.4c1.7,0.6,3.7,0.9,5.7,0.9C-346.4,154.7-345,154.3-343.8,153.6 M-343.4,149.8c-1.4,1.1-2.8,1.9-4.7,1.9
			c-2.6,0-5.1-0.7-6.7-1.7c-1.8,2.2-2.6,3.8-5.2,7.4l-3,12.4l9.7-0.2c0-5.3,5.1-10.6,15.1-13.1
			C-339.4,154.1-341.2,151.8-343.4,149.8L-343.4,149.8z"/>
	</g>
	<g>
		<path class="st1" d="M-328.7,146.6c1.4,0.6,2.9,0.9,4.4,0.9c1.4,0,2.9-0.3,4.2-0.9c2.5,2.2,3.2,3.1,3.4,3.4
			c0.1,0.3,0.4,1.1,0.7,2.1c-2.6-0.2-5.5-0.4-8.3-0.4c-3,0-5.8,0.1-8.3,0.3c0.2-0.6,0.4-1.1,0.5-1.5
			C-331.4,149.5-330.2,148-328.7,146.6 M-319.7,143c-1.3,0.9-3,1.5-4.6,1.5c-1.7,0-3.3-0.5-4.8-1.5c-2.8,2-4.7,4.6-5.8,6.2
			c-0.3,0.9-2.1,6.5-2.1,6.5c3.3-0.6,8.4-0.9,12.6-0.9c4.2,0,9.1,0.3,12.5,1c0,0-1.6-5.8-2-6.9C-314.4,147.6-317.2,145.1-319.7,143
			L-319.7,143z"/>
	</g>
	<g>
		<path class="st1" d="M-295,153.4c1.1,1.1,2.4,2.6,3.2,3.9c0.3,1.1,1.4,4.6,2.5,8.6h-2.8c-1.4-4.6-6.1-8.4-13.5-11
			c0.3-0.4,0.6-0.9,1-1.3c1.5,0.5,3,0.9,4.8,0.9C-298.2,154.4-296.4,153.9-295,153.4 M-294.2,149.8c0,0-3.5,1.6-5.5,1.6
			c-2.1,0-3.7-0.6-5.9-1.4c-1.7,2.1-3.3,4.4-4.9,6.5c10,2.5,15.9,7,15.9,12.3h9.3c0,0-3.3-11.9-3.7-12.9
			C-290.7,153.2-294.2,149.8-294.2,149.8L-294.2,149.8z"/>
	</g>
	<g>
		<path class="st1" d="M-324.3,128.1c2,0,3.7,1.5,3.7,3.4c0,1.3-0.7,5-3.7,5c-3.6,0-3.7-4.8-3.7-5
			C-328,129.6-326.4,128.1-324.3,128.1 M-324.3,125.1c-3.7,0-6.7,2.8-6.7,6.4c0,3.5,1.9,8,6.7,8c4.6,0,6.7-4.5,6.7-8
			C-317.7,128-320.6,125.1-324.3,125.1L-324.3,125.1z"/>
	</g>
	<g>
		<path class="st1" d="M-328.7,146.6c1.4,0.6,2.9,0.9,4.4,0.9c1.4,0,2.9-0.3,4.2-0.9c2.5,2.2,3.2,3.1,3.4,3.4
			c0.1,0.3,0.4,1.1,0.7,2.1c-2.6-0.2-5.5-0.4-8.3-0.4c-3,0-5.8,0.1-8.3,0.3c0.2-0.6,0.4-1.1,0.5-1.5
			C-331.4,149.5-330.2,148-328.7,146.6 M-319.7,143c-1.3,0.9-3,1.5-4.6,1.5c-1.7,0-3.3-0.5-4.8-1.5c-2.8,2-4.7,4.6-5.8,6.2
			c-0.3,0.9-2.1,6.5-2.1,6.5c3.3-0.6,8.4-0.9,12.6-0.9c4.2,0,9.1,0.3,12.5,1c0,0-1.6-5.8-2-6.9C-314.4,147.6-317.2,145.1-319.7,143
			L-319.7,143z"/>
	</g>
	<g>
		<path class="st1" d="M-324.2,160.7c14.3,0,23.4,4.9,23.4,8.3c0,3.4-9.1,8.3-23.4,8.3c-14.3,0-23.4-4.9-23.4-8.3
			C-347.6,165.6-338.5,160.7-324.2,160.7 M-324.2,157.7c-14.6,0-26.4,5-26.4,11.3c0,6.2,11.8,11.3,26.4,11.3
			c14.6,0,26.4-5,26.4-11.3C-297.7,162.8-309.6,157.7-324.2,157.7L-324.2,157.7z"/>
	</g>
</g>
<g>
	<g>
		<path class="st3" d="M-324.3,6.6c2.5,0,4.5,1.9,4.5,4.2c0,2.3-1.4,5.3-4.5,5.3c-3.2,0-4.5-3-4.5-5.3
			C-328.7,8.5-326.7,6.6-324.3,6.6z"/>
	</g>
	<g>
		<path class="st3" d="M-340.6,10.9c2.5,0,4.5,1.9,4.5,4.2s-1.1,5.3-4,5.5c-3.7,0.2-4.9-3.1-4.9-5.5S-343.1,10.9-340.6,10.9z"/>
	</g>
	<g>
		<path class="st3" d="M-308.2,10.7c2.5,0,4.5,1.9,4.5,4.2c0,2.3-1.3,5.1-4.5,5.1c-3.2,0-4.5-2.8-4.5-5.1
			C-312.6,12.6-310.6,10.7-308.2,10.7z"/>
	</g>
	<g>
		<path class="st3" d="M-333.5,27.5c-0.9-1.6-2-3.1-3.5-4.4c-1,0.7-1.8,1.3-3.1,1.3c-1.8,0-3.4-0.4-4.5-1.1
			c-1.2,1.5-1.7,2.5-3.5,4.9l-2,8.3l6.5-0.1C-343.6,32.8-340.2,29.2-333.5,27.5z"/>
	</g>
	<g>
		<path class="st3" d="M-324.3,26.4c2.8,0,6.1,0.2,8.3,0.7c0,0-1.1-3.8-1.4-4.6c-0.3-0.8-2.2-2.5-3.9-3.9c-0.9,0.6-2,1-3.1,1
			c-1.1,0-2.2-0.4-3.2-1c-1.9,1.3-3.1,3.1-3.9,4.1c-0.2,0.6-1.4,4.3-1.4,4.3C-330.5,26.6-327.1,26.4-324.3,26.4z"/>
	</g>
	<g>
		<path class="st3" d="M-307.9,24.2c-1.4,0-2.4-0.4-3.9-1c-1.2,1.4-2.2,2.9-3.3,4.3c6.7,1.7,10.6,4.7,10.6,8.2h6.2
			c0,0-2.2-7.9-2.5-8.6c-1.1-1.8-3.5-4.1-3.5-4.1S-306.5,24.2-307.9,24.2z"/>
	</g>
	<g>
		<path class="st3" d="M-324.3,6.6c2.5,0,4.5,1.9,4.5,4.2c0,2.3-1.4,5.3-4.5,5.3c-3.2,0-4.5-3-4.5-5.3
			C-328.7,8.5-326.7,6.6-324.3,6.6z"/>
	</g>
	<g>
		<path class="st3" d="M-324.3,26.4c2.8,0,6.1,0.2,8.3,0.7c0,0-1.1-3.8-1.4-4.6c-0.3-0.8-2.2-2.5-3.9-3.9c-0.9,0.6-2,1-3.1,1
			c-1.1,0-2.2-0.4-3.2-1c-1.9,1.3-3.1,3.1-3.9,4.1c-0.2,0.6-1.4,4.3-1.4,4.3C-330.5,26.6-327.1,26.4-324.3,26.4z"/>
	</g>
	<g>
		<path class="st3" d="M-324.2,28.4c9.7,0,17.6,3.4,17.6,7.5c0,4.1-7.9,7.5-17.6,7.5c-9.7,0-17.6-3.4-17.6-7.5
			C-341.8,31.7-333.9,28.4-324.2,28.4z"/>
	</g>
</g>
<g>
	<g>
		<path class="st3" d="M-324.3,270.3c3.7,0,6.7,2.8,6.7,6.4c0,3.5-2.1,8-6.7,8c-4.8,0-6.7-4.5-6.7-8
			C-331,273.1-328,270.3-324.3,270.3z"/>
	</g>
	<g>
		<path class="st3" d="M-348.8,276.6c3.7,0,6.7,2.8,6.7,6.4s-1.6,8-5.9,8.2c-5.5,0.3-7.4-4.7-7.4-8.2S-352.5,276.6-348.8,276.6z"/>
	</g>
	<g>
		<path class="st3" d="M-300.2,276.3c3.7,0,6.7,2.8,6.7,6.4c0,3.5-1.9,7.7-6.7,7.7c-4.8,0-6.7-4.2-6.7-7.7
			C-306.8,279.2-303.8,276.3-300.2,276.3z"/>
	</g>
	<g>
		<path class="st3" d="M-338.1,301.6c-1.3-2.4-3-4.7-5.2-6.7c-1.4,1.1-2.8,1.9-4.7,1.9c-2.6,0-5.1-0.7-6.7-1.7
			c-1.8,2.2-2.6,3.8-5.2,7.4l-3,12.4l9.7-0.2C-353.3,309.5-348.2,304.2-338.1,301.6z"/>
	</g>
	<g>
		<path class="st3" d="M-324.3,299.9c4.2,0,9.1,0.3,12.5,1c0,0-1.6-5.8-2-6.9c-0.5-1.3-3.3-3.7-5.8-5.9c-1.3,0.9-3,1.5-4.6,1.5
			c-1.7,0-3.3-0.5-4.8-1.5c-2.8,2-4.7,4.6-5.8,6.2c-0.3,0.9-2.1,6.5-2.1,6.5C-333.6,300.2-328.6,299.9-324.3,299.9z"/>
	</g>
	<g>
		<path class="st3" d="M-299.7,296.6c-2.1,0-3.7-0.6-5.9-1.4c-1.7,2.1-3.3,4.4-4.9,6.5c10,2.5,15.9,7,15.9,12.3h9.3
			c0,0-3.3-11.9-3.7-12.9c-1.6-2.7-5.2-6.1-5.2-6.1S-297.7,296.6-299.7,296.6z"/>
	</g>
	<g>
		<path class="st3" d="M-324.3,270.3c3.7,0,6.7,2.8,6.7,6.4c0,3.5-2.1,8-6.7,8c-4.8,0-6.7-4.5-6.7-8
			C-331,273.1-328,270.3-324.3,270.3z"/>
	</g>
	<g>
		<path class="st3" d="M-324.3,299.9c4.2,0,9.1,0.3,12.5,1c0,0-1.6-5.8-2-6.9c-0.5-1.3-3.3-3.7-5.8-5.9c-1.3,0.9-3,1.5-4.6,1.5
			c-1.7,0-3.3-0.5-4.8-1.5c-2.8,2-4.7,4.6-5.8,6.2c-0.3,0.9-2.1,6.5-2.1,6.5C-333.6,300.2-328.6,299.9-324.3,299.9z"/>
	</g>
	<g>
		<path class="st3" d="M-324.2,302.9c14.6,0,26.4,5,26.4,11.3c0,6.2-11.8,11.3-26.4,11.3c-14.6,0-26.4-5-26.4-11.3
			C-350.6,307.9-338.8,302.9-324.2,302.9z"/>
	</g>
</g>
<g>
	<g>
		<path class="st1" d="M-203.8-82.6c1.1,0,2,0.9,2,2v10h-11.5c-1.1,0-2-0.9-2-2v-10H-203.8 M-203.8-84.6h-13.5v12c0,2.2,1.8,4,4,4
			h13.5v-12C-199.8-82.8-201.6-84.6-203.8-84.6L-203.8-84.6z"/>
	</g>
	<g>
		<path class="st1" d="M-201.8-63.4v10c0,1.1-0.9,2-2,2h-11.5v-10c0-1.1,0.9-2,2-2H-201.8 M-199.8-65.4h-13.5c-2.2,0-4,1.8-4,4v12
			h13.5c2.2,0,4-1.8,4-4V-65.4L-199.8-65.4z"/>
	</g>
	<g>
		<path class="st1" d="M-183-63.4c1.1,0,2,0.9,2,2v10h-11.5c-1.1,0-2-0.9-2-2v-10H-183 M-183-65.4h-13.5v12c0,2.2,1.8,4,4,4h13.5
			v-12C-179-63.6-180.8-65.4-183-65.4L-183-65.4z"/>
	</g>
	<g>
		<path class="st1" d="M-181-82.6v10c0,1.1-0.9,2-2,2h-11.5v-10c0-1.1,0.9-2,2-2H-181 M-179-84.6h-13.5c-2.2,0-4,1.8-4,4v12h13.5
			c2.2,0,4-1.8,4-4V-84.6L-179-84.6z"/>
	</g>
</g>
<g>
	<g>
		<path class="st1" d="M-206.6,129.2c1.7,0,3,1.3,3,3v15h-17.3c-1.7,0-3-1.3-3-3v-15H-206.6 M-206.6,126.2h-20.3v18c0,3.3,2.7,6,6,6
			h20.3v-18C-200.6,128.9-203.3,126.2-206.6,126.2L-206.6,126.2z"/>
	</g>
	<g>
		<path class="st1" d="M-203.6,158v15c0,1.7-1.3,3-3,3h-17.3v-15c0-1.7,1.3-3,3-3H-203.6 M-200.6,155h-20.3c-3.3,0-6,2.7-6,6v18
			h20.3c3.3,0,6-2.7,6-6V155L-200.6,155z"/>
	</g>
	<g>
		<path class="st1" d="M-175.5,158c1.7,0,3,1.3,3,3v15h-17.3c-1.7,0-3-1.3-3-3v-15H-175.5 M-175.5,155h-20.3v18c0,3.3,2.7,6,6,6
			h20.3v-18C-169.5,157.7-172.2,155-175.5,155L-175.5,155z"/>
	</g>
	<g>
		<path class="st1" d="M-172.5,129.2v15c0,1.7-1.3,3-3,3h-17.3v-15c0-1.7,1.3-3,3-3H-172.5 M-169.5,126.2h-20.3c-3.3,0-6,2.7-6,6v18
			h20.3c3.3,0,6-2.7,6-6V126.2L-169.5,126.2z"/>
	</g>
</g>
<g>
	<g>
		<path class="st4" d="M-217.3,7.4h13.5c2.2,0,4,1.8,4,4v12h-13.5c-2.2,0-4-1.8-4-4V7.4z"/>
	</g>
	<g>
		<path class="st4" d="M-213.3,26.6h13.5v12c0,2.2-1.8,4-4,4h-13.5v-12C-217.3,28.4-215.5,26.6-213.3,26.6z"/>
	</g>
	<g>
		<path class="st4" d="M-196.6,26.6h13.5c2.2,0,4,1.8,4,4v12h-13.5c-2.2,0-4-1.8-4-4V26.6z"/>
	</g>
	<g>
		<path class="st4" d="M-192.6,7.4h13.5v12c0,2.2-1.8,4-4,4h-13.5v-12C-196.6,9.2-194.8,7.4-192.6,7.4z"/>
	</g>
</g>
<g>
	<g>
		<path class="st4" d="M-226.9,271.4h20.3c3.3,0,6,2.7,6,6v18h-20.3c-3.3,0-6-2.7-6-6V271.4z"/>
	</g>
	<g>
		<path class="st4" d="M-220.9,300.2h20.3v18c0,3.3-2.7,6-6,6h-20.3v-18C-226.9,302.9-224.2,300.2-220.9,300.2z"/>
	</g>
	<g>
		<path class="st4" d="M-195.8,300.2h20.3c3.3,0,6,2.7,6,6v18h-20.3c-3.3,0-6-2.7-6-6V300.2z"/>
	</g>
	<g>
		<path class="st4" d="M-189.8,271.4h20.3v18c0,3.3-2.7,6-6,6h-20.3v-18C-195.8,274.1-193.1,271.4-189.8,271.4z"/>
	</g>
</g>
<g>
	<path class="st4" d="M-638.5,9.3h-29.1c-8.8,0-16,7.2-16,16v14.8c0,0.4,0.3,0.7,0.7,0.7h29.1c8.8,0,16-7.2,16-16V9.9
		C-637.8,9.5-638.1,9.3-638.5,9.3z M-670.8,28.4c-1.2,0-2.3-1-2.3-2.3c0-1.2,1-2.2,2.3-2.2c1.2,0,2.3,1,2.3,2.2
		C-668.6,27.3-669.6,28.4-670.8,28.4z M-660.6,28.4c-1.2,0-2.3-1-2.3-2.3c0-1.2,1-2.2,2.3-2.2c1.2,0,2.3,1,2.3,2.2
		C-658.4,27.3-659.4,28.4-660.6,28.4z M-650.5,28.4c-1.2,0-2.3-1-2.3-2.3c0-1.2,1-2.2,2.3-2.2c1.2,0,2.3,1,2.3,2.2
		C-648.2,27.3-649.2,28.4-650.5,28.4z"/>
</g>
<g>
	<path class="st4" d="M-627.4,274.2H-671c-13.3,0-24,10.7-24,24v22.2c0,0.6,0.4,1,1,1h43.6c13.3,0,24-10.7,24-24v-22.2
		C-626.4,274.6-626.8,274.2-627.4,274.2z M-675.9,302.8c-1.9,0-3.4-1.5-3.4-3.4c0-1.9,1.5-3.4,3.4-3.4c1.9,0,3.4,1.5,3.4,3.4
		C-672.6,301.3-674.1,302.8-675.9,302.8z M-660.6,302.8c-1.9,0-3.4-1.5-3.4-3.4c0-1.9,1.5-3.4,3.4-3.4c1.9,0,3.4,1.5,3.4,3.4
		C-657.3,301.3-658.8,302.8-660.6,302.8z M-645.4,302.8c-1.9,0-3.4-1.5-3.4-3.4c0-1.9,1.5-3.4,3.4-3.4c1.9,0,3.4,1.5,3.4,3.4
		C-642,301.3-643.5,302.8-645.4,302.8z"/>
</g>
<g>
	<path class="st4" d="M-76-68.5h30v3h-30V-68.5z"/>
	<path class="st4" d="M-76-57.2h22v3h-22V-57.2z"/>
	<path class="st4" d="M-76-79.8h22v3h-22V-79.8z"/>
</g>
<g>
	<path class="st4" d="M-83.5,24.7h45v4.5h-45V24.7z"/>
	<path class="st4" d="M-83.5,41.8h33v4.5h-33V41.8z"/>
	<path class="st4" d="M-83.5,7.7h33v4.5h-33V7.7z"/>
</g>
<g>
	<path class="st4" d="M25.8-82.5h3v31h-3V-82.5z"/>
	<path class="st4" d="M11.5-68.2h31v3h-31V-68.2z"/>
</g>
<g>
	<path class="st4" d="M25.3,3.7h4.5v46.5h-4.5V3.7z"/>
	<path class="st4" d="M3.7,25.3h46.5v4.5H3.7V25.3z"/>
</g>
</svg>
