<?xml version="1.0" encoding="UTF-8"?>
<svg width="160px" height="160px" viewBox="0 0 160 160" version="1.1" xmlns="http://www.w3.org/2000/svg" xmlns:xlink="http://www.w3.org/1999/xlink">
    <!-- Generator: Sketch 51.2 (57519) - http://www.bohemiancoding.com/sketch -->
    <title>空状态搜索</title>
    <desc>Created with Sketch.</desc>
    <defs></defs>
    <g id="空状态搜索" stroke="none" stroke-width="1" fill="none" fill-rule="evenodd">
        <g id="Group" transform="translate(6.400000, 12.000000)">
            <path d="M60.70288,118.71384 C60.70288,118.71384 5.75888,94.14984 25.81968,52.53784 C36.76928,29.82584 63.46368,44.75944 108.72928,22.65224 C146.63728,4.13864 156.65168,53.63944 134.73008,90.49944 C115.41408,122.98024 60.70288,118.71384 60.70288,118.71384" id="Fill-1" fill="#C5DAFE"></path>
            <path d="M86.55992,44.90872 C86.55992,44.90872 90.66392,45.77512 92.48312,47.37512 C94.30312,48.97512 97.05272,47.70872 98.21112,50.67512 C99.36952,53.64232 97.86952,58.47512 97.86952,58.47512 C97.86952,58.47512 100.97832,59.28392 100.84472,63.00872 C100.71112,66.73352 97.49192,68.35832 96.33912,69.45832 C95.18632,70.55912 95.46872,77.30872 95.75272,78.44232 C96.03672,79.57512 103.76952,80.30872 108.36952,81.90872 C112.96952,83.50872 124.94472,83.60952 132.03352,94.50952 C125.83352,102.84312 111.92072,111.32232 111.92072,111.32232 L87.42792,70.83592 L86.55992,44.90872 Z" id="Fill-3" fill="#7FA0DB"></path>
            <path d="M79.5724,83.08064 C79.5724,83.08064 63.6588,87.41824 55.7364,95.00864 C46.166,104.17824 42.9028,121.43664 42.9028,121.43664 L129.3652,121.24544 C129.3652,121.24544 126.0988,102.74544 122.0172,96.55184 C114.8996,85.75424 93.638,83.13424 93.638,83.13424 L79.5724,83.08064 Z" id="Fill-5" fill="#ECF4FD"></path>
            <path d="M82.34432,73.33336 L82.34432,80.86616 L77.49632,83.76616 C77.49632,83.76616 83.16672,86.88616 86.27392,86.93416 C90.95472,87.00616 95.62352,83.44296 95.62352,83.44296 C95.62352,83.44296 91.65312,80.86296 91.16992,79.85256 C90.68752,78.84216 91.06272,72.51176 91.06272,72.51176 L82.34432,73.33336 Z" id="Fill-7" fill="#EFA98D"></path>
            <path d="M98.19824,62.41968 C97.91904,58.66288 94.92704,58.82528 93.44144,60.26688 C93.36384,57.35648 93.29424,54.90688 93.29424,54.90688 C93.29424,54.90688 89.18704,52.52288 84.71424,52.66048 C80.24064,52.79728 75.88144,54.54208 75.88144,54.54208 C76.09424,57.97248 76.14944,60.43008 75.34384,62.79568 C74.53664,65.16048 73.65904,66.27968 73.20064,68.72128 C73.19744,74.54928 80.17184,76.47248 84.20064,76.46848 C89.98944,76.05248 93.67184,72.78848 93.63824,69.02608 C93.63344,68.49168 93.61904,67.70048 93.59984,66.76448 C95.11104,66.57808 98.44784,65.78688 98.19824,62.41968" id="Fill-9" fill="#EFA98D"></path>
            <path d="M78.51152,57.4896 C78.51152,57.4896 85.70592,57.4896 89.23632,56.4224 C91.14512,55.8456 92.28912,59.4304 92.40432,59.9464 C92.52032,60.4624 93.28672,57.884 93.28672,57.884 L90.67552,52.8304 L78.51152,57.4896 Z" id="Fill-11" fill="#ED8A6B"></path>
            <path d="M92.04192,49.76424 C92.04192,49.76424 89.20512,42.21944 79.44752,45.23064 C76.02192,46.59784 75.26032,48.14104 73.08832,49.17384 C67.32752,51.91144 66.00832,48.20824 66.00832,48.20824 C66.00832,48.20824 65.95072,51.53064 69.87072,54.87464 C71.85632,56.56744 75.86512,57.48824 77.59632,57.48984 C82.62592,57.49384 88.38032,56.36344 89.98992,54.16344 C91.90592,51.54424 92.04192,49.76424 92.04192,49.76424" id="Fill-13" fill="#020234"></path>
            <path d="M92.04192,49.76424 C92.04192,49.76424 95.95472,49.80664 95.74432,53.77944 C95.51552,58.09464 94.43392,60.81304 93.70912,61.04824 C92.03952,61.53704 92.67232,59.62584 91.81392,57.22104 C90.74112,54.21704 89.98992,54.16344 89.98992,54.16344 L92.04192,49.76424 Z" id="Fill-15" fill="#020234"></path>
            <polygon id="Fill-17" fill="#ECF4FD" points="0.7992 38.5424 77.8752 38.5424 77.8752 15.2824 0.7992 15.2824"></polygon>
            <path d="M20.706,27.324 C20.706,31.7488 17.1196,35.336 12.694,35.336 C8.2692,35.336 4.6828,31.7488 4.6828,27.324 C4.6828,22.8992 8.2692,19.312 12.694,19.312 C17.1196,19.312 20.706,22.8992 20.706,27.324" id="Fill-19" fill="#C5DAFE"></path>
            <polygon id="Fill-20" fill="#C5DAFE" points="143.01928 45.55168 132.77048 45.55168 108.72968 45.55168 108.72968 5.29888 143.01928 5.29888 143.01928 36.37568"></polygon>
            <polygon id="Fill-21" fill="#8EB3F6" points="113.5744 20.1264 122.992 20.1264 122.992 10.7088 113.5744 10.7088"></polygon>
            <path d="M79.79824,68.20792 C79.79824,68.58152 78.52144,68.88392 76.94704,68.88392 C75.37104,68.88392 74.09424,68.58152 74.09424,68.20792 C74.09424,67.83512 75.37104,67.53192 76.94704,67.53192 C78.52144,67.53192 79.79824,67.83512 79.79824,68.20792" id="Fill-22" fill="#ED8A6B"></path>
            <path d="M90.67552,68.20792 C90.67552,68.58152 89.39232,68.88392 87.81072,68.88392 C86.22832,68.88392 84.94672,68.58152 84.94672,68.20792 C84.94672,67.83512 86.22832,67.53192 87.81072,67.53192 C89.39232,67.53192 90.67552,67.83512 90.67552,68.20792" id="Fill-23" fill="#ED8A6B"></path>
            <path d="M78.76616,62.22592 C78.76616,62.53392 78.51656,62.78352 78.20856,62.78352 C77.90056,62.78352 77.65016,62.53392 77.65016,62.22592 C77.65016,61.91792 77.90056,61.66832 78.20856,61.66832 C78.51656,61.66832 78.76616,61.91792 78.76616,62.22592" id="Fill-24" fill="#191A65"></path>
            <path d="M87.67552,62.22592 C87.67552,62.53392 87.42592,62.78352 87.11792,62.78352 C86.80992,62.78352 86.55952,62.53392 86.55952,62.22592 C86.55952,61.91792 86.80992,61.66832 87.11792,61.66832 C87.42592,61.66832 87.67552,61.91792 87.67552,62.22592" id="Fill-25" fill="#191A65"></path>
            <path d="M91.16384,62.41968 L93.80304,60.54208" id="Stroke-26" stroke="#191A65" stroke-width="0.5"></path>
            <path d="M81.98648,66.37552 C81.98648,66.37552 81.31928,67.12272 81.41928,67.53232 C81.51928,67.94192 82.41928,68.09792 82.41928,68.09792 L81.98648,66.37552 Z" id="Fill-27" fill="#ED8A6B"></path>
            <path d="M81.98648,66.37552 C81.98648,66.37552 81.31928,67.12272 81.41928,67.53232 C81.51928,67.94192 82.41928,68.09792 82.41928,68.09792" id="Stroke-28" stroke="#191A65" stroke-width="0.5"></path>
            <path d="M82.41928,71.79392 C82.46808,71.64432 83.18328,70.74432 84.50088,70.84432" id="Stroke-29" stroke="#191A65" stroke-width="0.5"></path>
            <path d="M81.78416,62.89312 C81.78416,65.17152 80.10576,67.01792 78.03616,67.01792 C75.96736,67.01792 74.28976,65.17152 74.28976,62.89312 C74.28976,60.61472 75.96736,58.76752 78.03616,58.76752 C80.10576,58.76752 81.78416,60.61472 81.78416,62.89312 Z" id="Stroke-30" stroke="#ED8A6B" stroke-width="0.5"></path>
            <path d="M81.5888,62.41968 C81.5888,64.69808 79.9104,66.54448 77.8408,66.54448 C75.772,66.54448 74.0944,64.69808 74.0944,62.41968 C74.0944,60.14128 75.772,58.29408 77.8408,58.29408 C79.9104,58.29408 81.5888,60.14128 81.5888,62.41968 Z" id="Stroke-31" stroke="#191A65" stroke-width="0.5"></path>
            <path d="M81.5888,62.68376 C81.5888,62.68376 82.1136,62.60296 82.5184,62.60296 C82.9232,62.60296 83.6696,62.68376 83.6696,62.68376" id="Stroke-32" stroke="#191A65" stroke-width="0.5"></path>
            <path d="M91.31616,62.78376 C91.31616,65.06216 89.63776,66.90856 87.56816,66.90856 C85.49936,66.90856 83.82176,65.06216 83.82176,62.78376 C83.82176,60.50536 85.49936,58.65816 87.56816,58.65816 C89.63776,58.65816 91.31616,60.50536 91.31616,62.78376 Z" id="Stroke-33" stroke="#ED8A6B" stroke-width="0.5"></path>
            <path d="M91.16384,62.41968 C91.16384,64.69808 89.48544,66.54448 87.41584,66.54448 C85.34704,66.54448 83.66944,64.69808 83.66944,62.41968 C83.66944,60.14128 85.34704,58.29408 87.41584,58.29408 C89.48544,58.29408 91.16384,60.14128 91.16384,62.41968 Z" id="Stroke-34" stroke="#191A65" stroke-width="0.5"></path>
            <polygon id="Fill-35" fill="#3B7CF6" points="63.012 118.7136 108.7296 118.7136 108.7296 115.9408 63.012 115.9408"></polygon>
            <path d="M89.1888,75.2072 C89.1888,75.2072 88.8368,76.2088 83.46,76.468 C84.8128,77.3592 88.4832,79.1688 88.7224,80.5328 C88.9616,81.8968 89.5864,86.484 89.5864,86.484 C89.5864,86.484 90.3648,86.2088 91.3952,85.78 C90.6696,84.1136 90.6752,82.0688 90.3648,80.752 C90.0712,79.5072 89.1888,75.2072 89.1888,75.2072" id="Fill-36" fill="#E28269"></path>
            <path d="M93.48648,61.66808 C93.48648,61.66808 96.23688,60.68088 96.33688,62.41928 C96.43688,64.15848 93.80328,64.90888 93.80328,64.90888 L93.48648,61.66808 Z" id="Fill-37" fill="#ED8A6B"></path>
            <polygon id="Fill-38" fill="#3B7CF6" points="63.012 112.7088 108.7296 112.7088 108.7296 109.936 63.012 109.936"></polygon>
            <path d="M91.39512,85.77984 C91.39512,85.77984 95.67832,92.03584 97.33672,93.60864 C103.75112,99.69504 110.88632,106.55904 112.58632,113.35904 C114.28632,120.15904 102.48632,116.15904 102.48632,116.15904 L88.93672,86.80864 L91.39512,85.77984 Z" id="Fill-39" fill="#C0DDFF"></path>
            <path d="M126.89976,109.93608 L107.63656,114.90888 C107.63656,114.90888 101.56936,102.25848 93.28616,92.30888 C91.23656,89.84648 88.63656,80.77528 88.63656,80.77528 C88.63656,80.77528 89.43656,78.60888 89.30296,77.87528 C89.16936,77.14168 86.55976,72.34408 86.55976,72.34408 C86.55976,72.34408 86.21896,73.56728 86.38616,74.43368 C86.55256,75.30088 87.39656,76.64168 87.41656,76.80888 C87.43656,76.97528 84.85256,76.50888 84.58616,77.20888 C84.31896,77.90888 83.83656,79.27528 84.36936,80.00888 C84.90296,80.74168 85.16616,82.02808 85.16616,82.02808 C85.16616,82.02808 85.85736,94.96888 88.14936,105.01848 C90.44056,115.06888 94.85736,127.38888 104.50776,132.22648 C114.88136,137.42648 128.43656,135.80888 129.36536,127.60888 C130.29336,119.40888 126.89976,109.93608 126.89976,109.93608" id="Fill-40" fill="#EFA98D"></path>
            <path d="M90.36464,86.20912 C89.36304,83.40272 88.63664,80.77552 88.63664,80.77552 C88.63664,80.77552 89.43664,78.60912 89.30304,77.87552 C89.16944,77.14192 86.19904,71.60432 86.19904,71.60432 C86.19904,71.60432 85.50864,72.21712 85.67504,73.08352 C85.84224,73.94992 87.26944,76.68432 87.28864,76.85072 C87.30864,77.01792 85.01984,76.59792 84.58624,77.20912 C84.12544,77.85872 83.28784,78.98992 83.82144,79.72352 C84.35504,80.45712 85.16624,82.02752 85.16624,82.02752 C85.16624,82.02752 85.32704,83.97472 85.63344,86.93552" id="Stroke-41" stroke="#ED8A6B" stroke-width="0.5"></path>
            <polygon id="Fill-42" fill="#191A65" points="115.62552 0.00016 115.62552 5.29936 143.01912 5.29936 143.01912 40.25296 147.90312 40.25296 147.90312 0.00016"></polygon>
            <path d="M118.84824,112.01424 C118.84824,112.01424 124.33144,116.77744 124.76904,123.70864 C125.37064,133.22864 116.16104,135.64064 104.50744,132.22704 C105.93864,133.31264 111.26904,135.20864 117.33624,135.20864 C128.90264,134.74224 129.82264,128.30864 129.56184,123.05904 C129.28264,117.42384 126.89944,109.93584 126.89944,109.93584 L118.84824,112.01424 Z" id="Fill-43" fill="#ED8A6B"></path>
            <polygon id="Fill-44" fill="#C5DAFE" points="27.6368 24.5208 50.4 24.5208 50.4 20.7848 27.6368 20.7848"></polygon>
            <polygon id="Fill-45" fill="#C5DAFE" points="27.636 32.6544 69.3408 32.6544 69.3408 28.9176 27.636 28.9176"></polygon>
            <path d="M107.63648,114.90872 C102.53648,104.20872 96.28608,96.14312 93.28688,92.30872 C90.28688,88.47432 89.33648,80.25832 88.63648,80.77512 C87.93648,81.29192 86.55968,81.60872 86.55968,81.60872 C86.55968,81.60872 88.47328,82.01832 88.58688,82.65832 C88.93648,84.64232 89.54208,89.44232 94.33648,95.60872 C98.21888,100.60152 109.63648,119.20872 109.63648,119.20872 C109.63648,120.20872 112.58608,113.35912 112.58608,113.35912 L107.63648,114.90872 Z" id="Fill-46" fill="#ED8A6B"></path>
            <path d="M63.01152,121.39232 C63.01152,121.39232 62.63632,118.53392 62.43632,115.40912 C62.23632,112.28352 63.01152,105.70912 63.01152,105.70912 C63.01152,105.70912 61.63632,106.77552 61.50272,108.10912 C61.36912,109.44192 57.03632,114.54592 56.70272,117.32752 C56.36912,120.10912 56.36912,121.39232 56.36912,121.39232 L63.01152,121.39232 Z" id="Fill-47" fill="#C0DDFF"></path>
            <polygon id="Fill-48" fill="#8EB3F6" points="120.492 31.312 137.0032 31.312 137.0032 29.8256 120.492 29.8256"></polygon>
            <polygon id="Fill-49" fill="#8EB3F6" points="120.492 37.7208 137.0032 37.7208 137.0032 36.2344 120.492 36.2344"></polygon>
            <path d="M143.51928,63.7548 C143.51928,69.834 138.59128,74.762 132.51208,74.762 C126.43368,74.762 121.50488,69.834 121.50488,63.7548 C121.50488,57.6764 126.43368,52.7484 132.51208,52.7484 C138.59128,52.7484 143.51928,57.6764 143.51928,63.7548" id="Fill-50" fill="#C5DAFE"></path>
            <path d="M138.40992,69.14432 C138.78512,67.19152 137.19312,64.43952 134.53872,63.49872 C135.69072,62.70112 136.25072,61.10912 135.40192,59.51072 C135.18112,59.09232 134.82752,58.74592 134.40832,58.52752 C132.16432,57.35872 129.92112,58.95632 129.92112,61.07792 C129.92112,62.08192 130.42592,62.96672 131.19312,63.49872 C128.68672,64.56112 127.30752,67.29072 127.32272,69.14432 L138.40992,69.14432 Z" id="Fill-51" fill="#8EB3F6"></path>
            <polygon id="Fill-52" fill="#ECF4FD" points="48.33568 86.14272 41.23648 80.56352 12.67008 80.56352 12.67008 57.28032 48.33568 57.28032"></polygon>
            <polygon id="Fill-53" fill="#C5DAFE" points="16.8856 65.2304 41.2328 65.2304 41.2328 63.6304 16.8856 63.6304"></polygon>
            <polygon id="Fill-54" fill="#C5DAFE" points="28.5136 69.4672 41.2328 69.4672 41.2328 67.8672 28.5136 67.8672"></polygon>
            <polygon id="Fill-55" fill="#191A65" points="20.23648 57.28064 48.23648 57.28064 48.23648 81.38624 50.66928 81.38624 50.66928 55.24944 20.23648 55.24944"></polygon>
        </g>
    </g>
</svg>